<svg width="700" height="602" viewBox="0 0 700 602" fill="none" xmlns="http://www.w3.org/2000/svg">
<path d="M601.77 255C601.071 252.258 598.864 250.152 596.098 249.566L592.711 248.859V201.476L598.239 196.75C600.422 194.89 601.336 191.933 600.586 189.168C599.836 186.402 597.555 184.312 594.735 183.804L563.684 178.172L563.695 138.277L563.684 137.452L569.403 132.57C571.582 130.706 572.5 127.749 571.75 124.988C571 122.214 568.719 120.128 565.899 119.617L314.919 74.3276C312.97 73.9682 310.969 74.4135 309.352 75.5424L114.872 211.172C111.2 213.208 97.7473 222.442 98.0013 248.11C98.2865 275.981 114.778 288.637 115.485 289.165C115.579 289.24 115.688 289.283 115.786 289.349C115.954 289.466 116.122 289.572 116.294 289.673C116.477 289.779 116.669 289.868 116.864 289.958C117.036 290.044 117.212 290.115 117.403 290.181C117.614 290.259 117.829 290.314 118.048 290.372C118.173 290.411 118.29 290.462 118.411 290.49L129.895 292.896C128.032 297.962 126.766 304.314 126.848 312.294C126.989 326.103 131.106 336.173 135.309 342.888L126.411 349.087C122.715 351.149 109.286 360.399 109.548 386.025C109.829 413.896 126.314 426.58 127.036 427.08C127.657 427.506 128.899 428.162 129.954 428.4L393.234 483.642C393.261 483.646 393.288 483.658 393.32 483.666L402.722 485.638C403.226 485.744 403.741 485.795 404.245 485.795C405.991 485.795 407.706 485.174 409.062 484.021L582.102 336.221C584.258 334.377 585.176 331.471 584.477 328.733C583.77 325.991 581.57 323.885 578.797 323.299L575.707 322.655V282.721L599.391 262.494C601.555 260.646 602.477 257.74 601.774 255.002L601.77 255ZM391.54 282.164C393.294 282.164 395.005 281.543 396.36 280.383L548.93 150.063V197.251L390.17 332.281V282.019C390.635 282.105 391.088 282.163 391.545 282.163L391.54 282.164ZM126.37 226.687L375.29 278.917V329.147L126.37 277.022V226.687ZM137.925 414.887V364.586L386.835 416.828V467.129L137.925 414.887ZM155.339 341.219V298.239L381.699 345.731C381.726 345.735 381.75 345.747 381.777 345.754L391.179 347.727C391.687 347.833 392.199 347.883 392.703 347.883C394.449 347.883 396.168 347.262 397.523 346.11L401.64 342.587L404.129 343.106V393.387L155.339 341.219ZM560.859 334.828L401.769 470.268L401.718 419.94C402.171 420.03 402.632 420.081 403.089 420.081C404.835 420.081 406.55 419.464 407.906 418.308L416.3 411.14L420.011 411.917C420.515 412.022 421.031 412.073 421.531 412.073C423.285 412.073 424.995 411.452 426.351 410.3L560.861 295.35L560.859 334.828ZM578.129 261.125L419.059 396.515L419.004 346.21C419.465 346.296 419.918 346.351 420.372 346.351C422.125 346.351 423.836 345.73 425.192 344.578L578.152 213.918L578.129 261.125Z" fill="black"/>
</svg>
